<svg width="405" height="405" viewBox="0 0 405 405" fill="none" xmlns="http://www.w3.org/2000/svg">
<rect width="405" height="405" rx="202.5" fill="white"/>
<g clip-path="url(#clip0_4803_62560)">
<path d="M332.568 129.267C332.568 143.591 317.959 155.203 299.938 155.203C281.917 155.203 267.309 143.591 267.309 129.267C267.309 114.943 281.917 103.332 299.938 103.332C317.959 103.332 332.568 114.943 332.568 129.267Z" fill="#071225"/>
<path d="M236.917 193.888L102.699 193.584C98.9513 193.576 95.6661 196.087 94.6915 199.706C93.6279 203.655 95.6087 207.788 99.3528 209.432L152.33 232.703C162.876 237.335 167.339 249.896 162.081 260.145L131.203 320.323C127.964 326.634 119.738 328.363 114.233 323.89C110.042 320.485 108.89 314.568 111.497 309.839L137.727 262.256C140.496 257.232 138.481 250.914 133.315 248.422L85.7468 225.471C75.9208 220.731 69.6758 210.783 69.6758 199.874C69.6758 184.11 82.5051 171.358 98.2685 171.453L174.835 171.914L236.874 171.533C243.074 171.495 248.12 176.51 248.12 182.71C248.12 188.893 243.101 193.902 236.917 193.888Z" fill="#0065FF"/>
<path d="M230.001 160.643L80.8385 160.785C74.6754 160.791 69.676 155.797 69.6759 149.633C69.6758 143.422 74.7509 138.407 80.962 138.482L230.756 140.283C234.59 140.329 237.723 137.233 237.723 133.399C237.723 130.359 235.729 127.679 232.817 126.805L116.269 91.8295C109.977 89.9411 107.017 82.7405 110.162 76.9727C112.486 72.7117 117.461 70.6399 122.122 71.9918L237.803 105.54C250.237 109.146 258.599 120.779 258.057 133.714C257.426 148.755 245.055 160.629 230.001 160.643Z" fill="#071225"/>
</g>
<defs>
<clipPath id="clip0_4803_62560">
<rect width="262.895" height="262.895" fill="white" transform="translate(69.6758 69.6772)"/>
</clipPath>
</defs>
</svg>
