<svg width="155" height="67" viewBox="0 0 155 67" fill="none" xmlns="http://www.w3.org/2000/svg">
<path d="M69.6272 14.9814C69.6272 18.7015 65.7859 21.7172 61.0474 21.7172C56.3089 21.7172 52.4676 18.7015 52.4676 14.9814C52.4676 11.2613 56.3089 8.24565 61.0474 8.24565C65.7859 8.24565 69.6272 11.2613 69.6272 14.9814Z" fill="#071225"/>
<path d="M44.4871 31.764L9.18315 31.6852C8.19777 31.683 7.33395 32.3352 7.07767 33.275C6.798 34.3004 7.31885 35.3739 8.30333 35.801L21.0162 41.3166C24.4492 42.806 25.9021 46.8443 24.1903 50.1393L16.678 64.6001C15.8265 66.2391 13.6634 66.6882 12.2159 65.5265C11.1141 64.6421 10.8111 63.1055 11.4965 61.8775L17.8332 50.5234C18.8657 48.6735 18.1143 46.3467 16.1881 45.4288L4.71098 39.9594C2.13634 38.7325 0.5 36.1582 0.5 33.3348C0.5 29.2388 3.88766 25.9318 8.03445 25.9798L28.2678 25.9827H44.4513C46.0842 25.9593 47.4205 27.2603 47.4205 28.8732C47.4205 30.4723 46.1061 31.7676 44.4871 31.764Z" fill="#0065FF"/>
<path d="M42.656 23.1301L3.43527 23.1669C1.81469 23.1685 0.500121 21.8713 0.500103 20.2707C0.500085 18.6575 1.83455 17.3552 3.46773 17.3746L42.8547 17.8423C43.8628 17.8542 44.6866 17.0503 44.6866 16.0545C44.6866 15.265 44.1623 14.569 43.3967 14.3421L12.7514 5.25857C11.0968 4.76814 10.3186 2.89811 11.1457 1.40018C11.7567 0.293536 13.0647 -0.244511 14.2904 0.106589L44.7076 8.81936C47.9771 9.75588 50.176 12.777 50.0333 16.1363C49.8673 20.0427 46.6146 23.1263 42.656 23.1301Z" fill="#071225"/>
<path d="M49.6055 39.4277V38.9609C49.6055 37.1977 49.8605 35.5753 50.3705 34.0936C50.8806 32.5971 51.6232 31.3006 52.5983 30.2042C53.5734 29.1078 54.7735 28.2558 56.1987 27.6483C57.6238 27.026 59.259 26.7148 61.1042 26.7148C62.9494 26.7148 64.592 27.026 66.0322 27.6483C67.4723 28.2558 68.68 29.1078 69.6551 30.2042C70.6452 31.3006 71.3952 32.5971 71.9053 34.0936C72.4153 35.5753 72.6704 37.1977 72.6704 38.9609V39.4277C72.6704 41.1761 72.4153 42.7985 71.9053 44.295C71.3952 45.7767 70.6452 47.0731 69.6551 48.1844C68.68 49.2808 67.4798 50.1328 66.0547 50.7403C64.6295 51.3478 62.9944 51.6515 61.1492 51.6515C59.304 51.6515 57.6613 51.3478 56.2212 50.7403C54.796 50.1328 53.5884 49.2808 52.5983 48.1844C51.6232 47.0731 50.8806 45.7767 50.3705 44.295C49.8605 42.7985 49.6055 41.1761 49.6055 39.4277ZM56.0861 38.9609V39.4277C56.0861 40.4352 56.1762 41.3761 56.3562 42.2503C56.5362 43.1245 56.8212 43.8949 57.2113 44.5617C57.6163 45.2136 58.1414 45.7248 58.7864 46.0952C59.4315 46.4657 60.2191 46.6509 61.1492 46.6509C62.0493 46.6509 62.8218 46.4657 63.4669 46.0952C64.112 45.7248 64.6295 45.2136 65.0196 44.5617C65.4096 43.8949 65.6946 43.1245 65.8747 42.2503C66.0697 41.3761 66.1672 40.4352 66.1672 39.4277V38.9609C66.1672 37.983 66.0697 37.0644 65.8747 36.205C65.6946 35.3308 65.4021 34.5603 64.9971 33.8936C64.607 33.212 64.0895 32.6786 63.4444 32.2934C62.7993 31.9081 62.0193 31.7155 61.1042 31.7155C60.1891 31.7155 59.409 31.9081 58.7639 32.2934C58.1339 32.6786 57.6163 33.212 57.2113 33.8936C56.8212 34.5603 56.5362 35.3308 56.3562 36.205C56.1762 37.0644 56.0861 37.983 56.0861 38.9609Z" fill="#071225"/>
<path d="M83.134 32.4045V51.207H76.6533V27.1593H82.7514L83.134 32.4045ZM90.4697 27.0038L90.3572 32.9379C90.0422 32.8935 89.6596 32.8564 89.2096 32.8268C88.7745 32.7823 88.377 32.7601 88.017 32.7601C87.1019 32.7601 86.3068 32.8786 85.6317 33.1157C84.9716 33.338 84.4166 33.6713 83.9665 34.1158C83.5315 34.5603 83.2015 35.1012 82.9764 35.7383C82.7664 36.3754 82.6464 37.1014 82.6164 37.9164L81.3113 37.5163C81.3113 35.9605 81.4688 34.5307 81.7838 33.2268C82.0988 31.9081 82.5564 30.7598 83.1565 29.7819C83.7715 28.804 84.5216 28.0484 85.4067 27.515C86.2918 26.9815 87.3044 26.7148 88.4445 26.7148C88.8045 26.7148 89.1721 26.7445 89.5471 26.8037C89.9222 26.8482 90.2297 26.9149 90.4697 27.0038Z" fill="#071225"/>
<path d="M100.011 32.1378V51.207H93.5075V27.1593H99.6057L100.011 32.1378ZM99.1106 38.3386H97.3104C97.3104 36.6643 97.5129 35.1234 97.918 33.7158C98.338 32.2934 98.9456 31.0636 99.7407 30.0264C100.551 28.9744 101.548 28.1595 102.733 27.5816C103.919 27.0038 105.291 26.7148 106.851 26.7148C107.932 26.7148 108.922 26.8778 109.822 27.2038C110.722 27.515 111.494 28.0113 112.139 28.6929C112.8 29.3596 113.31 30.2338 113.67 31.3155C114.03 32.3823 114.21 33.6639 114.21 35.1604V51.207H107.729V35.8716C107.729 34.7752 107.579 33.9306 107.279 33.338C106.979 32.7453 106.551 32.3304 105.996 32.0933C105.456 31.8563 104.804 31.7377 104.039 31.7377C103.199 31.7377 102.463 31.9081 101.833 32.2489C101.218 32.5897 100.708 33.0638 100.303 33.6713C99.8982 34.264 99.5982 34.9604 99.4031 35.7605C99.2081 36.5606 99.1106 37.42 99.1106 38.3386ZM113.602 37.6052L111.284 37.8941C111.284 36.3235 111.479 34.8641 111.869 33.5158C112.274 32.1674 112.867 30.9821 113.647 29.9597C114.442 28.9374 115.425 28.1447 116.595 27.5816C117.765 27.0038 119.115 26.7148 120.645 26.7148C121.815 26.7148 122.881 26.8852 123.841 27.226C124.801 27.552 125.618 28.078 126.293 28.804C126.984 29.5152 127.509 30.4487 127.869 31.6044C128.244 32.7601 128.431 34.1751 128.431 35.8494V51.207H121.928V35.8494C121.928 34.7381 121.778 33.8936 121.478 33.3157C121.193 32.7231 120.773 32.3156 120.218 32.0933C119.678 31.8563 119.033 31.7377 118.283 31.7377C117.503 31.7377 116.82 31.8933 116.235 32.2045C115.65 32.5008 115.162 32.9157 114.772 33.4491C114.382 33.9825 114.09 34.6048 113.895 35.316C113.7 36.0124 113.602 36.7755 113.602 37.6052Z" fill="#071225"/>
<path d="M144.655 51.6515C142.765 51.6515 141.07 51.3552 139.57 50.7625C138.07 50.155 136.795 49.3179 135.744 48.2511C134.709 47.1843 133.914 45.9471 133.359 44.5395C132.804 43.1171 132.527 41.6057 132.527 40.0055V39.1165C132.527 37.294 132.789 35.6272 133.314 34.1158C133.839 32.6045 134.589 31.2932 135.564 30.182C136.555 29.0707 137.755 28.2188 139.165 27.6261C140.575 27.0186 142.165 26.7148 143.935 26.7148C145.66 26.7148 147.191 26.9964 148.526 27.5594C149.861 28.1224 150.979 28.9225 151.879 29.9597C152.794 30.9969 153.484 32.2415 153.949 33.6936C154.414 35.1308 154.646 36.731 154.646 38.4942V41.1612H135.294V36.894H148.278V36.405C148.278 35.516 148.113 34.7233 147.783 34.0269C147.468 33.3157 146.988 32.7527 146.343 32.3378C145.698 31.923 144.873 31.7155 143.868 31.7155C143.013 31.7155 142.278 31.9007 141.663 32.2711C141.047 32.6416 140.545 33.1602 140.155 33.8269C139.78 34.4937 139.495 35.279 139.3 36.1828C139.12 37.0718 139.03 38.0497 139.03 39.1165V40.0055C139.03 40.9686 139.165 41.8576 139.435 42.6725C139.72 43.4875 140.117 44.1913 140.627 44.7839C141.152 45.3766 141.783 45.8359 142.518 46.1619C143.268 46.4879 144.115 46.6509 145.06 46.6509C146.231 46.6509 147.318 46.4286 148.323 45.9841C149.343 45.5248 150.221 44.8358 150.956 43.9172L154.106 47.2954C153.596 48.0214 152.899 48.7178 152.014 49.3846C151.144 50.0513 150.093 50.5995 148.863 51.0292C147.633 51.4441 146.231 51.6515 144.655 51.6515Z" fill="#071225"/>
</svg>
